<svg id="ic_dock_home_sel" xmlns="http://www.w3.org/2000/svg" width="28" height="28" viewBox="0 0 28 28">
  <rect id="사각형_4524" data-name="사각형 4524" width="28" height="28" fill="none"/>
  <g id="합치기_182" data-name="합치기 182" transform="translate(-20437.436 -12595.436)" fill="#fff">
    <path d="M 20447.185546875 12621.1865234375 L 20445.435546875 12621.185546875 C 20445.33203125 12621.185546875 20445.234375 12621.1826171875 20445.138671875 12621.1767578125 L 20445.099609375 12621.173828125 L 20445.05859375 12621.173828125 L 20443.4375 12621.173828125 C 20441.921875 12621.173828125 20440.6875 12619.9404296875 20440.6875 12618.423828125 L 20440.6875 12616.5830078125 L 20440.6875 12616.5576171875 L 20440.685546875 12616.533203125 C 20440.685546875 12616.5009765625 20440.685546875 12616.46875 20440.685546875 12616.435546875 L 20440.685546875 12609.435546875 C 20440.685546875 12609.4033203125 20440.685546875 12609.3701171875 20440.685546875 12609.337890625 L 20440.6875 12609.3134765625 L 20440.6875 12609.2880859375 L 20440.6875 12608.013671875 C 20440.6875 12606.939453125 20441.205078125 12605.8427734375 20441.974609375 12605.2841796875 L 20441.978515625 12605.28125 L 20441.982421875 12605.27734375 L 20449.33984375 12599.841796875 C 20450.12109375 12599.291015625 20450.826171875 12599.0224609375 20451.49609375 12599.0224609375 C 20452.158203125 12599.0224609375 20452.794921875 12599.275390625 20453.5 12599.8193359375 L 20453.50390625 12599.822265625 L 20453.5078125 12599.8251953125 L 20460.626953125 12605.2216796875 L 20460.6640625 12605.2490234375 L 20460.701171875 12605.2734375 C 20461.58984375 12605.8515625 20462.1875 12606.953125 20462.1875 12608.013671875 L 20462.1875 12618.423828125 C 20462.1875 12619.9404296875 20460.953125 12621.173828125 20459.4375 12621.173828125 L 20457.814453125 12621.173828125 L 20457.7734375 12621.173828125 L 20457.734375 12621.1767578125 C 20457.640625 12621.1826171875 20457.5390625 12621.185546875 20457.435546875 12621.185546875 L 20455.685546875 12621.185546875 L 20455.685546875 12616.435546875 C 20455.685546875 12615.1953125 20454.67578125 12614.185546875 20453.435546875 12614.185546875 L 20449.435546875 12614.185546875 C 20448.1953125 12614.185546875 20447.185546875 12615.1953125 20447.185546875 12616.435546875 L 20447.185546875 12621.1865234375 Z" stroke="none"/>
    <path d="M 20445.935546875 12619.935546875 L 20445.935546875 12616.435546875 C 20445.935546875 12614.505859375 20447.505859375 12612.935546875 20449.435546875 12612.935546875 L 20453.435546875 12612.935546875 C 20455.365234375 12612.935546875 20456.935546875 12614.505859375 20456.935546875 12616.435546875 L 20456.935546875 12619.935546875 L 20457.435546875 12619.935546875 C 20457.513671875 12619.935546875 20457.5859375 12619.93359375 20457.654296875 12619.9287109375 L 20457.734375 12619.923828125 L 20459.4375 12619.923828125 C 20460.263671875 12619.923828125 20460.9375 12619.2509765625 20460.9375 12618.423828125 L 20460.9375 12608.013671875 C 20460.9375 12607.3681640625 20460.560546875 12606.6728515625 20460.01953125 12606.3212890625 L 20459.9453125 12606.2724609375 L 20459.873046875 12606.2177734375 L 20452.736328125 12600.80859375 C 20452.11328125 12600.328125 20451.73046875 12600.2724609375 20451.49609375 12600.2724609375 C 20451.095703125 12600.2724609375 20450.62890625 12600.4638671875 20450.0703125 12600.8564453125 L 20442.708984375 12606.2958984375 C 20442.326171875 12606.57421875 20441.9375 12607.2529296875 20441.9375 12608.013671875 L 20441.935546875 12609.3828125 C 20441.935546875 12609.400390625 20441.935546875 12609.41796875 20441.935546875 12609.435546875 L 20441.935546875 12616.435546875 C 20441.935546875 12616.453125 20441.935546875 12616.470703125 20441.935546875 12616.4873046875 L 20441.9375 12616.5830078125 L 20441.9375 12618.423828125 C 20441.9375 12619.2509765625 20442.611328125 12619.923828125 20443.4375 12619.923828125 L 20445.138671875 12619.923828125 L 20445.21875 12619.9287109375 C 20445.287109375 12619.93359375 20445.357421875 12619.935546875 20445.435546875 12619.935546875 L 20445.935546875 12619.935546875 M 20448.435546875 12622.4365234375 L 20445.435546875 12622.435546875 C 20445.302734375 12622.435546875 20445.1796875 12622.431640625 20445.05859375 12622.423828125 L 20443.4375 12622.423828125 C 20441.232421875 12622.423828125 20439.4375 12620.6298828125 20439.4375 12618.423828125 L 20439.4375 12616.5830078125 C 20439.435546875 12616.5341796875 20439.435546875 12616.4853515625 20439.435546875 12616.435546875 L 20439.435546875 12609.435546875 C 20439.435546875 12609.38671875 20439.435546875 12609.3369140625 20439.4375 12609.2880859375 L 20439.4375 12608.013671875 C 20439.4375 12606.53515625 20440.14453125 12605.0673828125 20441.240234375 12604.2724609375 L 20448.607421875 12598.8291015625 C 20449.611328125 12598.1181640625 20450.556640625 12597.7724609375 20451.49609375 12597.7724609375 C 20452.4375 12597.7724609375 20453.341796875 12598.1181640625 20454.263671875 12598.8291015625 L 20461.3828125 12604.2255859375 C 20462.630859375 12605.037109375 20463.4375 12606.5244140625 20463.4375 12608.013671875 L 20463.4375 12618.423828125 C 20463.4375 12620.6298828125 20461.642578125 12622.423828125 20459.4375 12622.423828125 L 20457.814453125 12622.423828125 C 20457.693359375 12622.431640625 20457.56640625 12622.435546875 20457.435546875 12622.435546875 L 20454.435546875 12622.435546875 L 20454.435546875 12616.435546875 C 20454.435546875 12615.8837890625 20453.986328125 12615.435546875 20453.435546875 12615.435546875 L 20449.435546875 12615.435546875 C 20448.884765625 12615.435546875 20448.435546875 12615.8837890625 20448.435546875 12616.435546875 L 20448.435546875 12622.4365234375 Z" stroke="none" fill="#00a5b9"/>
  </g>
</svg>
